<svg xmlns="http://www.w3.org/2000/svg" height="40px" viewBox="0 -960 960 960" width="40px" fill="#e8eaed"><path d="M480-301.33Q588.33-378 639.5-457.83q51.17-79.84 51.17-150.84 0-91.75-59.17-150.21-59.17-58.45-151.33-58.45-92.17 0-151.5 58.45-59.34 58.46-59.34 150.21 0 71.34 51.17 151Q371.67-378 480-301.33Zm0 105.66Q327.67-298 256.5-402.67q-71.17-104.66-71.17-206 0-129 82.5-210.83 82.5-81.83 212.17-81.83t212.17 81.83q82.5 81.83 82.5 210.83 0 101.34-71.17 206Q632.33-298 480-195.67ZM479.33-521q36.67 0 62-25.16 25.34-25.17 25.34-60.51 0-35.53-25.34-61.6-25.33-26.06-62-26.06-36 0-61 25.95t-25 61.67q0 35.71 25 60.71t61 25ZM178.67-58.67v-83.66h602.66v83.66H178.67Zm301.33-548Z"/></svg>